<?xml version="1.0" standalone="no"?>
<!DOCTYPE svg PUBLIC "-//W3C//DTD SVG 20010904//EN"
 "http://www.w3.org/TR/2001/REC-SVG-20010904/DTD/svg10.dtd">
<svg version="1.0" xmlns="http://www.w3.org/2000/svg"
 width="870.000000pt" height="726.000000pt" viewBox="0 0 870.000000 726.000000"
 preserveAspectRatio="xMidYMid meet">

<g transform="translate(0.000000,726.000000) scale(0.100000,-0.100000)"
fill="#000000" stroke="none">
<path d="M5254 7223 c3 -16 9 -50 12 -78 5 -48 4 -52 -41 -105 -113 -135 -130
-252 -59 -411 36 -80 77 -113 246 -200 110 -56 154 -86 214 -142 65 -61 134
-153 134 -181 0 -5 -18 14 -40 42 -77 96 -188 172 -320 218 -36 12 -107 38
-157 58 -91 36 -263 86 -293 86 -8 0 50 -22 130 -49 80 -27 153 -52 162 -56
28 -11 11 -25 -31 -25 -108 0 -274 -83 -382 -191 -135 -135 -200 -305 -202
-524 -1 -140 16 -214 70 -318 79 -150 176 -159 159 -14 -3 26 -23 84 -45 129
-26 53 -37 86 -31 92 6 6 28 5 61 -2 28 -7 62 -12 76 -12 23 0 25 3 20 33 -20
105 -40 176 -80 277 -25 63 -44 116 -42 118 2 2 31 -17 65 -42 59 -43 108 -62
145 -54 33 6 54 53 79 172 34 162 48 172 82 59 21 -73 31 -79 108 -65 78 15
276 16 276 2 0 -5 -9 -10 -20 -10 -11 0 -46 -9 -76 -20 -121 -42 -170 -112
-162 -231 6 -72 32 -132 61 -137 19 -4 25 32 7 43 -5 3 -10 16 -10 28 0 26
100 126 152 150 158 74 252 -100 252 -468 0 -159 0 -161 -42 -304 -53 -177
-119 -360 -185 -511 -111 -257 -303 -614 -392 -730 -23 -30 -57 -82 -76 -115
-43 -78 -169 -252 -278 -385 -47 -58 -254 -276 -459 -485 -429 -436 -580 -601
-316 -345 99 96 261 249 359 340 396 362 594 594 816 954 94 152 118 179 214
245 139 96 187 110 231 66 29 -29 26 -56 -12 -95 -20 -21 -27 -23 -42 -12 -59
42 -122 33 -148 -22 -31 -63 20 -120 105 -119 57 1 98 20 139 67 37 42 48 92
32 140 -12 36 -52 76 -76 76 -8 0 -14 4 -14 9 0 17 144 46 230 46 101 0 175
-21 242 -71 103 -74 134 -180 76 -256 -33 -43 -142 -118 -171 -118 -45 0 -104
39 -128 86 l-24 45 33 30 c45 41 77 37 77 -10 0 -44 15 -48 54 -16 65 55 26
123 -65 112 -65 -7 -124 -69 -124 -130 0 -35 40 -89 80 -109 94 -48 247 17
299 125 55 113 -8 224 -169 300 -56 27 -78 32 -166 35 -166 7 -327 -45 -473
-153 -34 -25 -61 -43 -61 -41 0 2 29 63 64 137 68 142 196 443 196 461 0 6 2
9 5 6 3 -3 -2 -33 -11 -68 -19 -74 -12 -123 21 -156 37 -37 88 -33 131 10 40
40 45 85 14 116 -36 36 -120 19 -120 -24 0 -16 32 -46 49 -46 24 0 7 -44 -21
-54 -71 -25 -93 86 -39 199 49 104 139 194 253 256 64 34 74 53 11 21 -67 -35
-161 -109 -202 -162 -23 -29 -41 -45 -41 -37 0 25 76 130 145 201 57 58 182
152 191 143 2 -2 -2 -18 -8 -35 -27 -70 40 -162 118 -162 18 0 63 16 101 36
37 19 89 38 114 41 90 11 179 -55 200 -148 13 -56 -3 -99 -52 -143 -44 -40
-83 -47 -99 -17 -15 28 -13 31 20 31 50 0 63 56 22 103 -22 25 -54 21 -86 -11
-51 -55 -43 -132 21 -182 59 -46 151 -2 199 95 53 109 18 231 -103 356 -35 36
-87 79 -116 95 -45 25 -62 29 -132 29 -69 0 -89 -4 -147 -32 -89 -42 -149 -84
-227 -157 -35 -34 -59 -52 -53 -41 6 11 28 36 49 56 181 171 441 269 716 269
55 0 98 3 94 6 -3 3 -68 6 -144 5 -156 0 -273 -24 -395 -79 -152 -69 -303
-201 -388 -338 -23 -38 -39 -60 -35 -49 69 204 94 287 130 430 24 94 49 220
56 280 17 150 53 219 151 291 188 138 466 69 519 -129 36 -133 -14 -248 -129
-299 -73 -33 -133 -5 -177 82 -37 74 -72 110 -106 110 -87 0 -65 -193 30 -257
75 -50 169 -54 264 -10 71 32 108 66 142 129 26 46 30 63 29 128 -1 178 -134
323 -309 337 -150 13 -292 -54 -377 -177 -17 -24 -17 -21 -12 100 12 275 -67
458 -269 625 -44 37 -50 46 -63 109 -8 38 -19 75 -25 83 -21 25 -65 15 -98
-22 -17 -20 -31 -40 -31 -45 0 -6 -7 -10 -15 -10 -16 0 -45 49 -45 75 0 25 28
75 80 140 46 57 54 74 51 103 -2 18 -84 15 -126 -5 -19 -9 -37 -14 -41 -11 -3
4 3 26 14 51 16 35 32 52 83 82 84 50 99 64 99 91 0 25 -41 44 -96 44 -30 0
-34 3 -34 25 0 35 -24 79 -56 104 -36 28 -48 26 -40 -6z m477 -2366 l-23 -22
17 28 c10 15 20 25 23 22 3 -3 -5 -16 -17 -28z"/>
<path d="M5796 7039 c-20 -29 -21 -68 -1 -96 13 -19 13 -22 -1 -27 -33 -13
-100 -5 -131 14 l-33 20 0 -58 c0 -94 5 -97 156 -94 112 2 131 0 161 -18 l34
-20 -12 21 c-16 31 -2 35 27 8 l26 -24 -7 25 c-18 56 0 81 25 35 14 -26 14
-26 22 -5 6 15 2 30 -11 49 -37 51 -109 110 -150 121 -24 6 -49 22 -64 41
l-24 31 -17 -23z"/>
<path d="M6120 6785 c-7 -8 -10 -25 -6 -40 5 -19 13 -25 34 -25 25 0 42 -9
106 -54 15 -10 29 -16 32 -13 10 10 -33 72 -76 111 -43 39 -70 45 -90 21z"/>
<path d="M5696 6750 c-44 -14 -64 -38 -82 -99 -9 -30 -22 -67 -29 -82 -13 -25
-13 -26 13 -26 15 0 52 -16 81 -36 93 -64 142 -46 266 100 l67 78 -84 6 c-45
3 -78 6 -71 7 6 1 24 7 40 13 22 8 24 12 13 19 -11 7 -8 10 15 11 29 1 30 1 5
9 -33 11 -198 10 -234 0z"/>
<path d="M6033 6735 c-8 -23 26 -55 59 -55 35 0 36 14 2 45 -31 29 -52 32 -61
10z"/>
<path d="M6170 6672 c0 -4 5 -13 12 -20 15 -15 3 -16 -23 -1 -18 9 -19 8 -10
-9 6 -11 8 -22 5 -25 -3 -3 2 -18 12 -33 18 -27 18 -27 -4 -15 -19 10 -22 9
-22 -6 -1 -10 -12 3 -26 30 -29 55 -38 60 -29 15 6 -32 5 -32 -8 -9 -11 18
-16 21 -22 10 -7 -10 -12 -6 -20 14 l-11 27 -75 -86 c-40 -47 -80 -97 -88
-111 -18 -35 -2 -67 46 -92 46 -23 67 -45 85 -91 l14 -34 20 39 c15 32 28 43
69 58 58 21 85 48 85 87 0 28 0 28 38 15 47 -16 112 -26 110 -17 -1 4 2 39 6
78 5 46 4 79 -3 91 -5 11 -41 36 -80 57 -73 38 -81 41 -81 28z"/>
<path d="M4416 6585 c-103 -37 -194 -201 -167 -303 16 -59 27 -59 28 -1 1 52
19 83 54 94 10 3 57 -3 104 -14 145 -35 160 -29 177 70 l11 66 66 12 c36 6 80
13 96 15 17 1 -2 4 -40 5 -49 1 -102 11 -179 36 -60 19 -110 35 -110 35 -1 -1
-18 -7 -40 -15z"/>
<path d="M4898 6513 c7 -3 16 -2 19 1 4 3 -2 6 -13 5 -11 0 -14 -3 -6 -6z"/>
<path d="M6116 6190 c-27 -11 -62 -32 -78 -47 -30 -28 -87 -140 -119 -232 -23
-67 -24 -90 -1 -36 9 23 28 59 42 80 22 36 25 38 28 18 5 -32 40 -53 89 -53
53 0 71 23 83 108 4 33 16 72 26 86 38 59 121 74 172 31 47 -39 54 -125 11
-125 -17 0 -18 3 -9 21 14 26 -3 49 -35 49 -35 0 -50 -24 -39 -63 19 -64 113
-74 142 -14 26 55 -14 147 -78 179 -48 25 -169 23 -234 -2z"/>
<path d="M5001 5318 c6 -13 26 -48 44 -78 18 -30 36 -68 39 -85 10 -40 24 -55
52 -55 18 0 28 -10 43 -46 68 -152 101 -329 101 -534 0 -345 -95 -608 -293
-812 -56 -58 -90 -69 -119 -40 -27 27 -17 52 21 52 20 0 36 8 50 26 28 35 26
60 -4 80 -43 28 -111 -2 -140 -62 -38 -80 45 -155 138 -125 68 23 139 110 300
367 131 210 207 380 259 583 25 96 31 140 34 261 3 79 9 149 14 154 16 16 11
84 -9 124 -11 20 -34 51 -51 67 l-32 30 8 -50 c4 -27 9 -75 10 -105 2 -78 2
-77 26 -83 20 -6 21 -9 15 -106 -10 -139 -40 -290 -88 -427 -40 -115 -119
-287 -139 -299 -5 -3 -10 -5 -10 -3 0 2 7 53 15 113 17 130 19 362 4 470 -14
103 -42 211 -75 287 -17 40 -27 83 -28 118 -2 82 -53 141 -159 185 l-38 16 12
-23z"/>
<path d="M3706 5282 c-3 -6 -30 -18 -59 -26 -30 -9 -62 -25 -72 -36 -21 -24
-32 -116 -20 -177 l7 -38 13 30 13 30 2 -30 1 -30 15 28 c17 31 26 36 18 10
-3 -10 3 -4 13 12 16 28 18 29 21 8 2 -15 8 -20 18 -16 10 4 6 -8 -11 -32 -29
-44 -26 -57 7 -29 17 14 19 15 10 2 -8 -10 -11 -26 -7 -38 4 -12 2 -27 -4 -34
-9 -11 10 -17 96 -35 180 -35 191 -32 200 71 4 43 14 74 30 98 l23 35 -42 3
c-31 2 -56 13 -87 38 -48 37 -84 43 -117 19 -21 -14 -22 -13 -27 33 -7 56 -32
119 -41 104z"/>
<path d="M6809 5181 l50 -25 -6 -56 c-8 -77 6 -90 96 -90 121 0 152 -24 136
-106 -9 -48 9 -36 31 21 21 57 14 125 -20 193 -37 74 -52 80 -205 84 l-132 3
50 -24z"/>
<path d="M8135 5186 c-74 -33 -126 -127 -106 -189 13 -37 70 -97 117 -120 31
-16 31 -16 70 24 43 44 127 104 160 113 12 4 -12 -27 -60 -77 -120 -124 -128
-148 -64 -187 40 -24 76 -25 106 -4 28 19 44 51 73 139 26 81 73 137 167 200
50 34 60 44 45 49 -10 3 -97 19 -193 36 -191 33 -268 37 -315 16z"/>
<path d="M3489 5083 c-29 -69 -35 -125 -14 -146 38 -39 74 -7 57 51 -7 21 -9
61 -5 90 8 67 -10 69 -38 5z"/>
<path d="M7570 5055 c0 -4 9 -19 20 -35 11 -15 33 -56 50 -91 29 -62 30 -68
28 -187 l-3 -124 29 -25 c25 -21 37 -24 74 -20 24 3 48 9 53 14 12 12 -12 123
-45 204 -12 31 -18 55 -12 53 19 -7 54 -65 84 -139 l29 -71 -50 -59 c-65 -77
-104 -162 -119 -258 -10 -63 -15 -76 -28 -71 -41 18 -120 34 -167 34 l-53 0 0
108 0 109 -58 -58 c-33 -33 -70 -60 -87 -64 -142 -32 -165 -49 -145 -110 6
-18 16 -35 23 -38 14 -4 66 24 120 66 46 35 48 23 5 -22 -52 -53 -76 -65 -124
-62 -57 3 -147 -23 -207 -61 -73 -47 -160 -149 -211 -248 -46 -88 -58 -100
-100 -100 -12 0 -53 -15 -91 -33 -56 -27 -88 -53 -162 -130 -77 -81 -100 -114
-143 -199 -36 -75 -53 -123 -61 -178 -6 -41 -13 -80 -15 -87 -7 -26 -233 -123
-286 -123 -10 0 -18 7 -18 15 0 8 7 15 15 15 8 0 22 11 31 25 20 31 8 50 -37
60 l-30 7 41 35 c49 42 80 99 80 148 0 32 -2 35 -24 29 -24 -6 -24 -5 -27 85
-4 83 -6 93 -31 118 -26 25 -29 26 -44 11 -10 -10 -19 -41 -23 -79 l-6 -62
-33 81 c-37 90 -77 134 -161 177 -119 60 -294 74 -386 31 -58 -27 -125 -90
-151 -144 -29 -56 -26 -173 4 -235 36 -71 103 -134 164 -152 101 -30 262 -11
309 36 20 20 26 73 10 98 -7 11 -18 9 -62 -12 -78 -36 -125 -47 -204 -47 -155
1 -233 87 -211 234 22 141 176 229 352 199 277 -48 397 -301 251 -531 -50 -79
-125 -152 -185 -179 -67 -29 -448 -167 -742 -268 -395 -135 -579 -223 -768
-367 -79 -61 -55 -57 31 5 129 93 308 177 636 299 110 42 156 53 241 62 92 10
106 14 114 33 9 19 19 22 96 25 74 3 96 8 150 36 57 29 71 32 150 32 73 0 90
3 104 19 15 16 27 18 70 14 49 -5 55 -3 90 27 22 19 51 35 69 37 18 1 50 9 72
17 22 8 69 22 105 31 36 9 107 34 159 56 51 22 94 39 95 37 1 -2 10 -28 20
-58 24 -73 64 -134 127 -195 l52 -50 -50 65 c-65 84 -100 155 -108 216 l-6 49
51 34 c96 64 177 163 284 346 26 44 59 95 74 113 l27 33 1 -83 c1 -141 63
-258 157 -298 72 -31 119 -21 178 39 34 33 51 61 63 100 20 67 20 94 1 157
-22 74 -73 127 -167 173 -79 39 -80 39 -57 54 92 59 280 80 389 43 103 -35
245 -117 364 -210 28 -22 36 -25 28 -10 -12 22 -143 150 -187 182 l-30 21 27
1 c35 0 68 42 68 86 0 46 -15 81 -62 141 l-40 52 21 26 c11 15 23 46 26 70 6
36 11 44 33 48 37 7 127 -9 170 -30 33 -16 38 -23 44 -66 10 -71 39 -146 70
-179 20 -22 35 -28 67 -28 34 0 43 4 53 25 17 38 -15 98 -99 182 -82 82 -86
97 -58 206 22 84 57 148 120 216 45 48 66 63 109 75 53 16 89 45 100 81 3 11
28 33 56 48 27 16 50 32 50 38 0 13 -6 12 -50 -11 -22 -11 -41 -20 -43 -20 -3
0 -8 16 -11 35 -8 40 -55 99 -98 121 -16 8 -107 35 -201 60 -95 24 -180 47
-189 50 -10 3 -18 2 -18 -1z m-327 -884 c8 -8 8 -20 -1 -44 -24 -67 -8 -161
35 -209 18 -20 7 -23 -33 -8 -15 6 -59 15 -98 21 -114 15 -200 -1 -356 -68
-20 -9 33 79 92 153 92 114 211 179 312 169 21 -2 43 -8 49 -14z m633 -146 c9
-36 -2 -55 -30 -55 -45 0 -91 79 -111 190 -6 35 -6 35 64 -37 39 -40 73 -84
77 -98z m-550 61 c12 -4 33 -2 47 3 23 9 29 6 57 -29 87 -110 78 -222 -16
-207 -46 8 -94 40 -124 84 -24 36 -37 113 -26 159 6 24 9 25 24 11 9 -8 27
-18 38 -21z m-662 -328 c-4 -7 -22 -31 -40 -53 -17 -22 -64 -94 -104 -160 -40
-66 -94 -149 -120 -185 -56 -75 -137 -157 -146 -147 -12 11 26 149 60 221 37
76 137 202 204 254 76 60 166 103 146 70z m223 -20 c117 -44 193 -155 177
-259 -9 -53 -60 -127 -104 -151 -58 -32 -106 -20 -162 41 -66 72 -91 143 -86
245 5 76 6 81 41 113 43 39 57 40 134 11z"/>
<path d="M4638 4961 c-91 -36 -130 -70 -168 -141 -8 -16 4 -7 34 23 70 73 141
102 246 102 76 0 93 -4 152 -33 121 -59 188 -160 188 -283 0 -47 -5 -65 -32
-105 -18 -27 -47 -58 -65 -70 -44 -29 -124 -39 -162 -20 -36 19 -85 77 -112
133 -45 94 -74 80 -74 -36 0 -101 23 -138 114 -183 82 -41 168 -44 248 -9 195
86 218 332 48 507 -78 80 -182 127 -289 131 -62 2 -92 -1 -128 -16z"/>
<path d="M3566 4958 c-17 -56 -11 -98 15 -98 12 0 27 56 22 83 -5 28 -31 37
-37 15z"/>
<path d="M3471 4854 c-23 -29 -61 -142 -61 -179 0 -12 5 -36 11 -53 9 -25 7
-38 -5 -63 -20 -39 -20 -36 5 -42 32 -9 67 9 88 44 l19 31 27 -46 c15 -25 29
-64 32 -86 3 -22 8 -40 12 -39 3 0 26 13 51 28 38 23 45 33 48 63 2 28 -6 48
-42 100 -61 90 -76 121 -76 160 -1 31 -1 32 -15 14 -16 -21 -18 -17 -15 29 l2
30 -30 -28 c-31 -30 -51 -23 -27 9 19 26 19 35 -2 27 -16 -6 -16 -5 -4 10 7 9
11 17 8 17 -3 0 -15 -12 -26 -26z"/>
<path d="M3637 4853 c3 -10 11 -25 18 -33 6 -8 22 -33 35 -55 l24 -39 -37 28
c-24 19 -37 24 -37 15 -1 -8 -8 -3 -16 11 l-15 25 6 -30 c10 -51 62 -149 104
-194 l41 -44 62 8 c103 12 164 22 151 24 -19 2 -27 41 -24 114 4 108 -15 126
-186 166 -113 26 -134 27 -126 4z"/>
<path d="M4296 4824 c-3 -9 -6 -34 -6 -55 0 -43 -1 -43 -57 -22 -18 7 -16 -17
2 -37 9 -10 18 -41 22 -69 4 -38 15 -63 39 -94 18 -23 31 -44 27 -47 -12 -12
-77 81 -126 180 -49 99 -54 105 -85 108 -44 4 -57 -28 -41 -107 17 -86 17 -85
-16 -91 -38 -7 -42 -27 -16 -84 22 -52 64 -81 125 -91 44 -7 86 -29 86 -45 0
-5 -13 -7 -30 -3 -41 8 -38 -3 5 -21 19 -8 35 -20 35 -25 0 -6 11 -11 24 -11
33 0 76 -17 76 -30 0 -5 -13 -10 -30 -10 -22 0 -30 -5 -30 -17 1 -10 46 -76
100 -148 97 -127 99 -130 79 -146 -20 -15 -20 -16 24 -55 24 -21 63 -54 86
-72 53 -43 67 -71 80 -166 21 -146 16 -195 -30 -298 -22 -51 -56 -122 -76
-157 -52 -93 -208 -266 -462 -511 -243 -234 -323 -326 -407 -467 -164 -278
-187 -488 -87 -808 42 -136 107 -256 180 -335 77 -83 115 -107 266 -167 197
-78 289 -89 447 -54 151 34 237 86 261 158 18 54 6 147 -25 193 -32 49 -66 67
-154 82 -61 10 -75 10 -116 -6 -67 -26 -106 -61 -106 -97 l0 -30 38 29 c68 53
161 68 229 35 50 -23 93 -94 93 -152 0 -84 -73 -145 -220 -182 -168 -43 -335
-16 -505 81 -75 44 -175 124 -175 141 0 6 24 -11 54 -37 159 -141 358 -202
568 -175 104 13 142 31 175 81 28 41 29 85 3 128 -22 36 -54 52 -106 52 -51 0
-74 -16 -74 -50 0 -24 6 -30 38 -40 77 -25 109 -92 59 -124 -55 -37 -233 -39
-372 -5 -128 30 -269 124 -347 228 -63 86 -82 149 -82 282 -1 105 -1 106 43
195 81 163 230 284 406 329 120 31 324 11 427 -41 63 -31 128 -107 128 -149 0
-27 -27 -16 -33 15 -7 32 -39 47 -76 35 -17 -5 -21 -15 -21 -46 0 -34 5 -42
33 -59 36 -23 68 -25 100 -9 30 16 37 28 37 65 0 82 -142 184 -306 219 -147
31 -289 13 -424 -53 -98 -48 -222 -168 -268 -261 -18 -35 -32 -57 -32 -49 0
26 77 170 116 218 87 104 212 183 344 216 48 12 92 15 170 11 118 -5 192 -27
287 -83 32 -19 47 -25 33 -13 -41 35 -138 79 -218 100 -145 37 -303 17 -444
-58 -69 -36 -170 -124 -216 -188 l-22 -30 10 29 c19 53 97 160 162 223 124
119 299 214 485 265 95 25 334 32 395 10 46 -16 88 -58 88 -87 0 -34 -42 -67
-81 -63 -28 2 -34 8 -41 35 -24 91 -158 76 -158 -18 0 -98 122 -158 219 -107
56 29 81 62 88 117 5 34 1 48 -16 72 -29 38 -13 38 74 -4 170 -82 269 -240
236 -379 -24 -105 -83 -148 -203 -148 -87 0 -117 13 -140 60 -45 88 5 177 86
156 35 -9 40 -33 11 -60 -22 -20 -23 -25 -10 -36 22 -18 82 -4 101 24 35 54
-16 116 -95 116 -126 0 -185 -138 -97 -226 79 -79 256 -71 329 15 38 46 51 97
43 174 -20 181 -160 320 -383 378 -102 27 -324 30 -430 6 -227 -52 -447 -177
-564 -321 -126 -155 -208 -422 -196 -636 4 -73 11 -106 29 -145 14 -27 28 -63
32 -80 l7 -30 -21 25 c-53 66 -72 125 -82 260 -8 106 -7 143 5 204 26 128 139
338 246 458 62 70 190 162 295 213 236 115 546 138 801 58 212 -66 427 -229
502 -380 24 -51 28 -69 28 -148 0 -99 -19 -232 -41 -283 -18 -42 -90 -119
-182 -194 -40 -33 -71 -65 -69 -71 2 -6 16 -15 33 -20 16 -5 37 -16 46 -25 16
-13 22 -13 55 0 21 9 60 21 88 27 61 15 69 21 92 77 16 39 22 44 49 44 36 0
50 13 59 55 4 17 13 47 21 68 8 20 14 55 14 77 0 33 4 42 25 52 35 16 39 41
15 95 -14 31 -19 57 -14 76 5 24 0 36 -28 66 -84 91 -81 84 -61 119 17 30 17
31 -7 57 -14 15 -41 35 -61 45 -29 16 -37 26 -42 57 -4 21 -17 58 -29 83 -28
54 -74 82 -182 110 -43 11 -89 28 -104 38 -40 28 -46 29 -229 52 -92 12 -170
24 -173 27 -3 3 72 3 165 0 183 -7 378 -28 489 -54 40 -9 85 -13 108 -9 31 5
58 0 119 -24 80 -31 136 -38 168 -20 12 6 59 6 134 -1 129 -12 157 -5 157 36
0 13 -5 27 -11 30 -7 5 -3 16 12 31 27 29 21 46 -30 78 -21 14 -42 29 -45 34
-3 5 24 27 60 48 103 60 145 126 90 140 -15 4 -27 16 -33 37 -5 18 -19 37 -31
43 -13 6 -37 30 -54 53 -48 66 -86 73 -138 25 -14 -12 -38 -24 -55 -26 -51 -5
-43 -32 19 -62 109 -54 138 -168 63 -253 -36 -41 -130 -89 -193 -99 -23 -3
-156 2 -295 11 -275 19 -697 17 -879 -5 -200 -23 -405 -99 -540 -200 -134 -99
-282 -271 -364 -422 -37 -67 -96 -270 -96 -332 0 -17 -4 -37 -9 -44 -14 -23
-36 135 -35 253 1 136 20 216 85 353 102 216 172 306 514 652 154 157 302 314
328 349 64 85 133 228 157 325 14 56 20 113 20 193 0 203 -36 322 -199 658
l-106 220 1 80 c0 62 6 94 26 142 14 35 22 61 18 58 -4 -2 -28 9 -54 25 -52
33 -91 38 -100 14z"/>
<path d="M3288 4350 c-89 -18 -252 -69 -246 -76 2 -2 28 3 58 11 101 27 254
54 350 60 255 19 564 -72 715 -210 37 -34 36 -33 -27 10 -200 138 -447 200
-598 150 -110 -36 -235 -196 -275 -352 -32 -121 -12 -223 57 -290 47 -46 118
-82 161 -83 97 -1 159 130 102 216 -22 34 -76 58 -110 50 -37 -9 -61 -67 -44
-107 11 -29 26 -34 77 -30 25 2 31 -26 10 -47 -36 -36 -162 19 -193 84 -25 53
-17 149 15 198 57 83 148 115 263 91 139 -29 200 -16 232 52 26 55 25 115 -3
152 -28 38 -17 40 70 10 130 -43 291 -142 366 -222 23 -26 42 -49 42 -52 0 -3
-21 11 -47 31 -79 60 -213 118 -323 139 -53 11 -24 -10 35 -24 189 -46 364
-168 424 -297 29 -60 27 -62 -20 -19 -65 58 -120 78 -229 83 -196 8 -339 -60
-401 -192 -49 -102 -47 -208 3 -279 47 -66 191 -102 263 -65 64 34 105 110 86
160 -9 24 -49 62 -74 71 -7 2 -2 19 16 49 33 57 75 78 154 78 81 0 138 -31
178 -95 27 -43 30 -57 30 -124 -1 -85 -19 -135 -101 -270 -55 -90 -182 -261
-194 -261 -5 0 -10 10 -12 21 -2 12 -13 28 -24 36 -19 12 -24 12 -38 -2 -9 -9
-16 -28 -16 -43 0 -15 -10 -47 -21 -72 l-21 -45 -9 29 c-10 37 -37 66 -61 66
-14 0 -18 -8 -18 -35 0 -29 -10 -46 -53 -93 -29 -31 -59 -73 -66 -92 -8 -19
-26 -55 -40 -79 -21 -38 -26 -41 -32 -25 -15 39 -9 125 13 176 17 40 19 54 10
69 -7 10 -12 43 -12 73 0 39 -6 60 -21 80 -26 33 -39 33 -39 1 0 -13 -14 -40
-31 -59 -50 -58 -68 -125 -62 -233 4 -63 2 -102 -7 -122 -15 -36 -21 -38 -38
-11 -15 24 -38 26 -46 4 -3 -9 -6 -45 -6 -80 0 -35 -3 -64 -7 -64 -5 0 -8 -44
-8 -97 0 -85 -4 -106 -27 -159 l-28 -61 10 -279 c14 -361 29 -458 95 -616 92
-218 276 -389 498 -462 40 -13 92 -27 117 -30 42 -5 41 -5 -15 12 -336 100
-562 369 -632 752 -21 115 -23 374 -4 470 65 327 223 563 630 942 199 185 258
255 317 373 75 152 90 290 44 405 -10 25 -26 75 -35 112 -31 121 -117 241
-243 335 -139 105 -300 177 -465 208 -110 21 -309 19 -419 -5z"/>
<path d="M7989 4310 c-69 -20 -99 -60 -99 -132 0 -42 32 -128 46 -128 4 0 15
7 25 16 26 24 90 28 177 13 l77 -14 -85 -6 c-156 -13 -220 -44 -220 -109 0
-32 37 -80 62 -80 34 0 91 24 149 62 79 51 130 67 241 75 l87 6 -27 20 c-15
12 -74 66 -132 122 -132 127 -227 176 -301 155z"/>
<path d="M2877 4190 c-15 -12 -71 -30 -137 -44 -65 -14 -120 -32 -132 -43 -81
-71 -76 -279 7 -352 42 -36 58 -41 27 -8 -12 13 -27 37 -33 55 -16 48 5 75 78
96 32 10 72 22 90 27 44 14 83 47 83 70 0 11 -12 43 -26 72 l-27 52 54 47 c53
48 63 65 16 28z"/>
<path d="M7703 3830 c-51 -31 -55 -80 -14 -147 l20 -32 55 20 c58 20 96 24 96
11 0 -4 -19 -13 -42 -21 -77 -23 -113 -45 -110 -66 4 -25 38 -55 63 -55 10 0
43 22 73 49 53 48 84 62 170 79 l40 8 -106 77 c-144 105 -181 116 -245 77z"/>
<path d="M7427 3624 c-20 -11 -27 -20 -22 -32 4 -9 9 -42 11 -72 l5 -55 -25
69 c-14 37 -28 71 -31 74 -12 12 -60 -24 -63 -47 -2 -14 9 -41 29 -68 18 -25
42 -77 54 -116 l21 -70 77 97 c84 106 98 145 73 194 -23 45 -74 56 -129 26z"/>
<path d="M3242 3407 c-85 -32 -143 -112 -123 -169 8 -23 7 -35 -4 -51 -20 -28
-18 -105 4 -189 9 -38 16 -68 15 -68 -1 0 -29 37 -62 83 -85 118 -208 232
-290 270 -37 17 -70 36 -75 43 -15 25 -73 36 -119 23 l-43 -11 69 -25 c48 -17
71 -22 79 -14 14 14 132 -48 192 -101 52 -46 225 -248 213 -248 -3 0 -23 14
-44 31 -103 82 -274 149 -429 169 -49 7 -94 16 -99 21 -17 15 -68 10 -112 -12
-76 -36 -72 -44 24 -42 50 1 88 7 90 13 6 17 123 11 208 -10 189 -48 395 -186
444 -297 11 -25 24 -42 28 -39 5 3 22 -21 36 -54 15 -33 29 -60 31 -60 9 0
-28 85 -57 131 -39 65 -85 180 -100 251 -10 50 -10 64 2 85 17 31 40 41 40 19
0 -20 39 -46 70 -46 40 0 63 22 104 104 30 61 46 81 80 101 59 35 91 32 132
-9 39 -39 45 -85 17 -126 -23 -34 -35 -41 -50 -28 -11 9 -10 14 3 29 19 21 13
43 -15 59 -17 8 -24 7 -41 -10 -29 -29 -26 -74 7 -100 49 -38 103 -9 122 66
23 91 -18 154 -126 197 -60 24 -176 31 -221 14z"/>
<path d="M4823 3110 c-25 -15 -33 -27 -33 -49 0 -41 15 -47 30 -10 42 100 184
38 150 -66 -22 -66 -91 -110 -345 -220 -168 -72 -369 -177 -475 -246 -158
-105 -325 -293 -417 -471 -32 -61 -66 -148 -58 -148 2 0 20 27 40 60 64 106
173 238 242 294 186 149 431 266 631 301 47 8 207 20 356 25 479 18 533 28
590 103 38 49 32 53 -13 8 -62 -62 -104 -70 -416 -81 -425 -15 -560 -31 -721
-85 -154 -52 -326 -156 -461 -280 -40 -37 -73 -63 -73 -59 0 5 30 40 68 79 37
38 60 64 52 57 -7 -6 -18 -12 -22 -12 -18 0 130 123 216 181 49 33 211 120
360 194 270 133 436 231 475 281 30 38 28 94 -5 133 -23 28 -31 31 -82 31 -39
0 -67 -6 -89 -20z"/>
<path d="M2649 2997 c-67 -19 -131 -60 -182 -117 -129 -144 -113 -356 38 -499
61 -58 164 -111 230 -118 53 -6 112 12 126 39 9 17 7 25 -13 45 -18 18 -46 28
-109 39 -183 32 -218 50 -278 140 -133 202 23 464 278 464 121 0 233 -54 349
-169 113 -111 173 -233 193 -393 5 -45 7 -112 4 -148 -9 -96 -36 -254 -44
-263 -4 -4 -15 1 -24 11 -15 16 -15 22 1 77 12 44 16 102 17 220 0 175 -16
259 -71 368 -59 116 -203 225 -319 243 -136 20 -265 -95 -265 -236 0 -71 25
-124 83 -177 83 -76 171 -82 238 -14 64 64 75 169 23 230 -45 54 -126 68 -132
24 -2 -16 12 -39 46 -75 27 -29 52 -61 55 -71 12 -33 -21 -84 -70 -108 -40
-19 -49 -20 -86 -9 -166 50 -184 302 -29 397 123 75 341 -42 432 -232 55 -116
73 -203 73 -365 1 -127 -12 -230 -28 -230 -3 0 -25 15 -49 34 -70 53 -128 71
-226 70 -109 -1 -180 -27 -254 -95 -72 -66 -99 -129 -99 -229 0 -95 28 -164
88 -219 94 -87 259 -94 362 -16 82 64 98 201 31 273 -47 50 -85 15 -99 -90
-11 -90 -32 -132 -74 -152 -40 -19 -77 -20 -128 -2 -89 32 -141 100 -153 199
-13 114 52 219 174 279 59 30 76 33 152 33 76 0 92 -3 150 -33 36 -17 78 -43
93 -56 l28 -23 -16 -74 c-10 -48 -18 -137 -20 -249 l-3 -175 8 142 c8 143 25
279 39 317 8 19 9 19 26 -8 18 -27 18 -31 -6 -149 -19 -96 -24 -153 -24 -267
l0 -146 -27 14 c-42 20 -96 6 -140 -37 -64 -65 -64 -157 2 -223 32 -33 44 -38
83 -38 37 0 49 5 66 26 43 54 10 133 -58 139 -52 4 -65 50 -25 90 19 19 73 19
100 1 54 -38 58 -245 7 -344 l-28 -53 -100 -4 c-122 -4 -217 -28 -372 -94 -65
-27 -135 -53 -156 -56 l-39 -8 38 49 c59 77 77 128 81 224 3 74 1 90 -19 124
-48 82 -145 103 -245 53 -152 -77 -185 -270 -73 -427 27 -37 26 -40 -12 -34
-115 20 -216 72 -294 151 -64 66 -148 229 -194 378 l-31 100 6 -75 c5 -67 25
-172 39 -210 5 -12 -2 -15 -38 -12 -37 3 -49 0 -70 -21 -32 -32 -49 -97 -44
-169 4 -55 3 -56 -24 -62 -15 -3 -45 -22 -67 -42 l-40 -36 -30 21 c-37 27 -86
83 -107 122 -15 30 -14 34 9 88 51 113 58 191 20 233 -25 27 -69 23 -90 -9
-22 -33 -21 -150 1 -232 l14 -55 -58 -57 c-70 -68 -156 -113 -263 -136 -73
-16 -81 -16 -125 0 -59 21 -111 22 -140 1 -17 -11 -35 -13 -82 -8 -74 8 -83
-11 -10 -21 27 -4 50 -8 50 -10 0 -1 -7 -20 -16 -41 -20 -47 -13 -112 16 -161
11 -19 73 -99 137 -179 l118 -145 8 68 c13 119 32 168 92 233 68 74 88 112 80
151 -7 33 -53 69 -91 72 -23 2 -29 -6 -59 -78 -19 -44 -37 -102 -41 -128 -5
-32 -10 -44 -15 -35 -15 23 -10 89 13 168 l22 77 60 12 c97 20 180 64 250 131
l64 61 33 -46 c19 -26 55 -62 81 -82 27 -19 48 -37 48 -39 0 -3 -24 -39 -53
-82 -75 -107 -73 -102 -35 -91 64 19 149 13 208 -15 30 -14 64 -26 76 -26 26
0 50 26 59 62 6 24 3 29 -20 38 -14 5 -59 10 -98 10 -56 1 -68 3 -54 11 11 6
45 13 77 16 55 5 62 3 107 -29 139 -101 322 -98 540 9 l72 35 53 -26 c109 -53
275 -43 487 31 9 3 -2 -13 -23 -35 -26 -27 -58 -47 -90 -58 -134 -44 -277
-137 -290 -187 -3 -13 -20 -30 -40 -39 -42 -21 -61 -70 -53 -139 8 -62 28
-100 80 -150 85 -83 200 -118 267 -81 72 39 103 129 60 172 -34 34 -82 25
-106 -21 -11 -22 -12 -34 -4 -49 19 -35 70 -19 70 23 0 33 35 16 38 -20 5 -45
-40 -92 -94 -100 -36 -5 -46 -1 -74 24 -30 26 -34 37 -38 91 -4 50 0 70 22
117 48 105 25 173 -55 162 -35 -5 -39 -3 -39 18 0 46 75 97 218 149 l72 26
-22 -43 c-33 -61 -33 -203 -1 -264 50 -94 199 -203 277 -203 121 0 196 122
107 174 l-34 20 23 -32 c20 -27 22 -35 11 -54 -19 -35 -58 -60 -81 -53 -12 4
-51 31 -88 61 -66 53 -112 68 -128 43 -8 -14 -70 81 -86 133 -20 67 28 190
106 270 133 136 488 158 591 36 31 -37 33 -99 5 -145 -19 -32 -34 -38 -85 -34
-26 2 55 -50 160 -103 159 -79 242 -60 424 98 59 51 144 96 157 84 6 -7 -100
-150 -141 -190 -15 -15 -43 -32 -63 -39 -35 -12 -35 -12 -13 -21 95 -35 285
-26 381 18 100 46 228 159 347 305 51 64 105 107 126 101 5 -1 6 2 2 8 -3 5
-2 10 3 10 22 0 117 108 143 164 74 157 7 336 -159 420 -118 60 -268 77 -369
42 -63 -21 -125 -80 -149 -141 -19 -50 -14 -75 15 -75 13 0 26 15 41 45 30 62
91 112 147 121 57 8 193 -4 244 -21 93 -33 198 -136 219 -216 25 -93 -30 -227
-122 -295 -120 -88 -291 -140 -511 -155 -166 -11 -276 0 -460 46 -160 41 -299
125 -416 252 -159 172 -256 446 -231 647 10 78 43 222 54 233 10 10 26 -75 26
-143 0 -61 -5 -81 -31 -130 l-30 -59 35 34 c72 70 85 181 34 293 -19 41 -23
60 -16 83 43 158 55 410 25 525 -54 206 -223 402 -406 471 -69 26 -189 34
-252 16z m-1263 -1714 c22 -23 15 -122 -16 -189 -21 -48 -22 -48 -32 -24 -16
40 -22 183 -9 208 14 26 34 28 57 5z m1144 -31 c45 -33 62 -79 57 -154 -5 -83
-40 -159 -102 -223 -41 -42 -48 -45 -95 -45 l-50 0 -40 61 c-45 70 -60 114
-60 180 0 144 184 259 290 181z m823 -170 c21 -27 67 -78 105 -113 37 -35 58
-59 47 -55 -65 26 -191 66 -228 71 -69 11 -71 14 -48 83 12 36 21 88 21 124
l0 63 34 -61 c18 -34 49 -84 69 -112z m-1552 37 c45 -48 58 -111 37 -181 -11
-36 -72 -119 -80 -108 -1 3 -10 18 -18 34 -8 16 -28 37 -45 46 -27 15 -30 22
-33 70 -5 91 37 170 91 170 11 0 32 -14 48 -31z m173 -222 c60 -56 164 -111
262 -136 l69 -19 -57 -25 c-124 -57 -284 -74 -381 -41 -60 20 -131 82 -122
107 4 9 11 17 15 17 5 0 23 12 41 27 40 34 68 95 69 148 l0 40 27 -35 c15 -19
49 -57 77 -83z m1091 -3 c-66 -61 -168 -116 -259 -139 -152 -38 -309 -43 -352
-10 -18 14 -18 14 2 15 26 0 160 46 294 101 131 53 259 88 325 88 l50 0 -60
-55z m242 41 c58 -14 190 -61 205 -74 4 -3 -60 -4 -142 -2 -134 3 -245 -7
-297 -26 -10 -3 9 21 42 55 68 70 82 73 192 47z m1051 -222 c-16 -2 -40 -2
-55 0 -16 2 -3 4 27 4 30 0 43 -2 28 -4z"/>
<path d="M6376 2522 c22 -50 15 -87 -30 -162 -53 -89 -72 -151 -62 -205 6 -33
25 -57 104 -135 79 -78 255 -216 291 -228 14 -5 19 32 11 84 -4 27 -10 83 -13
124 l-6 75 31 -67 c18 -38 35 -68 39 -68 4 0 10 10 14 23 6 17 9 10 14 -33 l6
-55 13 53 c17 77 15 213 -7 318 -34 165 -59 190 -225 229 -64 15 -132 35 -151
45 -33 17 -36 17 -29 2z"/>
<path d="M6952 2470 c-125 -14 -143 -77 -97 -330 21 -119 16 -183 -23 -255
l-30 -55 40 31 c28 23 42 29 50 21 8 -8 2 -22 -19 -49 -49 -63 -49 -65 9 -43
101 38 135 15 53 -37 -52 -32 -56 -43 -17 -43 26 -1 26 -1 8 -15 -35 -26 -2
-16 45 13 52 34 181 167 204 212 9 17 20 56 26 88 13 78 26 100 76 129 48 28
46 40 -8 69 -58 29 -168 5 -185 -41 -11 -29 -22 -4 -34 78 -13 92 -5 145 32
205 l20 32 -44 -1 c-24 -1 -71 -5 -106 -9z"/>
<path d="M2390 2311 c-31 -32 -35 -34 -38 -16 -9 43 -52 64 -52 25 0 -12 -6
-31 -14 -43 -22 -35 -28 -101 -11 -123 13 -18 14 -18 8 4 -3 13 -1 22 6 22 6
0 11 -7 11 -15 0 -8 5 -15 10 -15 6 0 10 6 10 13 0 9 2 9 9 -1 6 -11 9 -9 13
5 3 11 31 39 63 64 32 24 60 49 62 55 2 7 -6 23 -19 36 l-23 24 -35 -35z"/>
<path d="M2440 2230 c-19 -10 -48 -32 -64 -49 l-29 -30 34 4 34 4 -32 -20
c-18 -12 -33 -24 -33 -29 0 -10 146 -33 168 -26 19 6 42 45 42 70 0 8 7 19 15
26 14 11 10 17 -27 41 -50 34 -61 35 -108 9z"/>
<path d="M2297 2098 c-7 -27 2 -45 14 -27 11 18 11 49 0 49 -5 0 -11 -10 -14
-22z"/>
<path d="M2233 2094 c-6 -16 3 -143 12 -166 3 -7 18 -22 32 -32 l26 -19 28 31
c16 18 29 26 32 19 2 -8 28 -12 71 -12 66 0 67 1 63 24 -3 13 1 38 8 55 18 42
9 54 -56 71 -72 20 -86 19 -94 -5 -4 -11 -11 -18 -16 -15 -5 4 -9 -3 -9 -14 0
-28 -17 -35 -25 -10 -6 17 -9 19 -16 8 -7 -11 -9 -9 -9 6 -1 15 -5 12 -20 -15
l-20 -35 6 30 c4 17 13 38 22 47 8 10 12 24 9 33 -8 20 -36 19 -44 -1z"/>
<path d="M6185 2018 c-28 -16 -44 -40 -85 -122 -33 -68 -39 -73 -119 -121
l-84 -49 36 -8 c84 -17 112 -41 155 -131 50 -105 83 -132 159 -131 29 1 53 0
53 -1 0 -1 -7 -16 -16 -34 -9 -19 -19 -73 -22 -129 l-7 -97 44 4 c24 2 70 -2
102 -9 110 -24 167 7 223 119 40 79 81 189 73 197 -2 3 -21 -9 -40 -25 -19
-17 -37 -31 -41 -31 -3 0 5 23 19 50 14 28 21 50 16 50 -6 0 -12 -4 -16 -10
-7 -12 -65 -53 -65 -46 0 3 15 22 33 43 30 35 28 34 -37 -15 -38 -29 -71 -50
-73 -48 -3 2 3 18 11 35 21 40 20 42 -9 35 -35 -9 -31 2 8 22 39 20 110 75
104 81 -3 2 -26 -1 -51 -8 -55 -14 -70 -7 -29 13 22 11 27 20 25 41 -2 24 3
30 36 45 l40 18 -152 113 c-196 148 -248 174 -291 149z"/>
<path d="M4745 1960 c10 -11 20 -20 23 -20 3 0 -3 9 -13 20 -10 11 -20 20 -23
20 -3 0 3 -9 13 -20z"/>
<path d="M4123 1876 c-95 -24 -156 -62 -240 -149 -96 -100 -133 -169 -139
-259 l-4 -63 14 62 c31 133 119 257 239 334 84 54 152 72 248 67 125 -7 234
-73 227 -137 -3 -27 -23 -32 -60 -16 -26 11 -35 -21 -12 -46 24 -26 62 -21 87
12 17 23 18 31 7 63 -14 45 -78 100 -138 121 -65 22 -167 27 -229 11z"/>
<path d="M6734 1745 c-42 -29 -72 -133 -44 -150 17 -10 57 21 86 66 43 69 15
125 -42 84z"/>
<path d="M1392 1637 c3 -6 24 -69 47 -139 49 -148 74 -178 144 -178 53 0 62 7
82 53 27 65 21 83 -34 103 -48 17 -121 64 -76 49 41 -14 149 -34 157 -29 16
10 8 71 -11 88 -16 15 -31 16 -100 11 -76 -7 -83 -6 -146 24 -37 17 -65 25
-63 18z"/>
<path d="M874 1604 c11 -27 33 -135 50 -244 27 -173 97 -270 194 -270 38 0 50
5 82 38 36 36 60 91 60 139 0 16 -5 20 -20 16 -11 -3 -31 -3 -44 1 -27 7 -125
92 -157 138 -20 28 -18 27 32 -11 73 -56 165 -101 206 -101 70 0 109 83 61
127 -32 29 -51 34 -155 43 -99 9 -168 36 -267 107 -36 26 -47 30 -42 17z"/>
<path d="M6793 1605 c-31 -13 -33 -17 -33 -67 0 -55 -9 -77 -68 -164 -32 -48
-37 -74 -16 -81 17 -6 158 120 192 173 39 57 41 96 7 129 -28 29 -37 30 -82
10z"/>
<path d="M2000 1525 c-135 -41 -160 -61 -160 -129 0 -54 17 -70 77 -70 44 -1
46 0 60 39 7 22 22 48 32 59 18 18 18 17 0 -35 -10 -30 -18 -66 -19 -81 0 -25
3 -28 35 -28 42 0 55 20 55 83 0 39 21 122 45 180 9 22 11 22 -125 -18z"/>
<path d="M414 934 c-32 -19 -66 -42 -74 -49 -30 -27 -77 -38 -188 -44 l-113
-6 163 -166 c134 -137 170 -168 204 -178 57 -15 92 -14 140 8 57 26 84 64 84
117 0 50 -36 154 -53 154 -7 0 -48 -5 -92 -11 -62 -9 -90 -8 -125 1 l-45 13
80 12 c44 7 108 20 143 30 58 16 62 20 62 47 0 16 -7 42 -15 58 -31 61 -86 65
-171 14z"/>
<path d="M4183 733 c9 -2 23 -2 30 0 6 3 -1 5 -18 5 -16 0 -22 -2 -12 -5z"/>
<path d="M2148 584 c-21 -13 -41 -36 -44 -50 -8 -30 1 -93 18 -130 l12 -27 12
29 12 29 7 -37 c4 -21 10 -38 14 -38 8 0 66 87 82 121 6 16 8 33 3 42 -10 17
-72 87 -76 86 -2 0 -20 -11 -40 -25z"/>
<path d="M2012 539 c-22 -8 -22 -10 -8 -31 9 -12 16 -33 16 -45 0 -19 -5 -23
-29 -23 -17 0 -32 -4 -35 -9 -8 -13 73 -96 112 -115 37 -19 63 -12 35 10 -17
12 -16 13 6 14 24 0 24 0 5 16 -15 13 -16 15 -2 10 15 -4 15 -2 -2 27 -11 18
-20 44 -20 59 0 46 -27 99 -50 97 -3 0 -15 -4 -28 -10z"/>
<path d="M2293 472 c-7 -4 -31 -32 -52 -61 -35 -47 -38 -55 -25 -68 8 -8 12
-19 9 -24 -4 -5 0 -9 8 -9 8 0 18 -7 21 -16 4 -11 2 -15 -7 -11 -7 3 -20 -1
-29 -7 -16 -11 -14 -16 13 -49 35 -42 68 -48 111 -19 l27 18 -19 32 c-19 31
-19 33 -3 39 23 8 33 23 33 49 0 12 9 33 21 48 l20 26 -20 0 c-11 0 -36 14
-54 30 -38 33 -37 33 -54 22z"/>
<path d="M2152 323 c2 -10 14 -20 28 -22 25 -3 25 -3 6 18 -23 26 -39 27 -34
4z"/>
<path d="M2137 276 c-7 -17 28 -51 66 -65 31 -12 37 1 9 21 -11 7 -24 23 -31
36 -13 25 -36 29 -44 8z"/>
</g>
</svg>
